<?xml version="1.0" encoding="UTF-8"?>
<svg id="a" xmlns="http://www.w3.org/2000/svg" viewBox="0 0 5192 5192">
  <path d="M3753.805,2153.109c163.468,161.614,365.168,337.211,512.935,508.733,104.198,120.949,126.227,273.855,34.041,409.388-111.253,131.141-245.706,241.41-364.379,366.075l-229.878-225.263c54.351-67.226,97.892,11.771,139.309,48.077l139.412-139.366c-36.414-31.722-110.607-78.557-65.939-131.848,46.985-56.056,105.292,30.218,134.411,63.335,49.4-55.879,123.015-93.597,113.496-179.366-7.827-70.525-96.293-123.653-138.849-175.376-36.437,30.063-80.293,111.328-132.052,55.904-53.598-57.393,61.593-109.474,58.166-128.819l-133.996-134.967c-36.564,29.978-81.177,112.431-132.06,55.912-52.937-58.8,60.825-113.823,58.152-128.822l-129.051-129.888-7.365-.076c-15.453,39.571-109.828,119.208-138.208,49.373-22.854-56.236,42.83-85.557,72.109-122.922l-100.275-102.446c-4.474-103.049-13.838-206.203-41.553-305.712,106.373,100.529,207.476,206.595,311.642,309.419,13.183,13.013,26.837,25.708,39.934,38.656Z" fill="#fff" />
  <path d="M1820.149,3346.376c2.733-13.354,34.028-45.695,45.5-48.52,9.016-2.22,66.07,6.995,73.646,13.16,49.321,40.133-50.722,90.913-47.702,108.214l139.092,140.108c25.997-36.335,86.695-106.791,134.052-63.069,52.275,48.263-38.268,103.147-65.536,136.61l144.416,144.413c26.521-34.464,94.687-111.373,137.958-59.322,45.854,55.159-45.271,92.463-62.209,125.37-2.011,3.906-3.383,6.235,0,10.056l137.2,136.843c28.376-34.972,80.142-104.984,129.431-63.421,56.775,47.875-26.557,97.052-55.82,131.968,99.171,79.653,203.262,284.656,349.819,167.38,8.606-6.887,65.842-63.015,68.691-68.551,2.509-4.874,2.509-5.182,0-10.056-8.604-16.716-48.188-39.328-57.362-59.82-18.305-40.886,24.534-84.667,67.591-67.331,18.207,7.331,60.516,63.655,70.441,61.201,26.946-49.688,104.951-88.527,132.11-131.719,3.691-5.869,5.092-5.553-.807-10.56-31.646-26.859-99.766-78.989-45.028-121.461,51.864-40.242,88.315,29.84,124.202,55.853l136.971-144.531c-31.377-24.772-82.544-58.519-59.631-105.299,17.534-35.797,53.022-35.426,82.442-13.803,32.022,23.535,147.772,139.902,172.585,172.222,2.911,3.792,8.259,5.984,7.071,12.123-132.219,134.931-267.067,267.228-400.322,401.117-192.173,193.089-346.362,397.289-628.657,157.385l-1049.333-1049.777c-51.391-62.731-89.338-160.162-68.624-240.665,56.201,50.416,119.949,91.548,184.982,129.377,23.239,13.518,58.624,24.184,78.747,37.87,37.043,25.194,76.443,85.284,113.918,114.259l10.163,2.376Z" fill="#fff" />
  <path d="M2244.798,1010.224c55.213-9.209,196.591,25.277,254.855,41.877,282,80.343,525.581,263.959,675.236,516.288,213.501,359.976,194.845,837.931-54.197,1174.851l-1.925,11.452,731.711,734.108c117.975,151.295-52.077,321.26-207.435,227.716l-740.978-739.89c-126.876,101.479-273.628,178.574-432.767,215.192-436,100.324-887.893-53.528-1158.099-408.74-36.38-47.825-141.628-208.428-133.914-264.308,8.416-60.964,78.277-91.771,128.282-54.56,28.724,21.374,58.148,102.118,79.616,138.408,336.548,568.927,1151.907,613.293,1565.599,102.254,464.17-573.396,115.75-1386.242-587.085-1521.885-39.984-7.717-128.249-10.627-155.548-32.053-52.823-41.46-32.28-129.213,36.649-140.709Z" fill="#fff" />
  <path d="M1204.348,1082.895c83.819,334.924,239.118,491.164,575.962,575.653,20.142,5.052,20.142,33.731,0,38.782-336.932,84.488-492.235,240.727-575.98,575.653-5.043,20.17-33.745,20.173-38.792.004-83.815-334.922-239.105-491.234-575.922-575.661-20.145-5.05-20.147-33.731-.003-38.783,336.902-84.49,492.201-240.73,575.944-575.645,5.043-20.17,33.745-20.173,38.792-.004Z" fill="#fff" />
  <path d="M1967.316,1871.594c53.485,191.397,148.632,286.985,341.11,340.85,19.456,5.445,19.455,33.053-.001,38.496-192.53,53.864-287.682,149.451-341.127,340.85-5.441,19.484-33.065,19.487-38.509.004-53.482-191.396-148.621-287.022-341.079-340.857-19.458-5.443-19.46-33.053-.002-38.497,192.508-53.865,287.655-149.453,341.098-340.843,5.441-19.484,33.065-19.487,38.509-.004Z" fill="#fff" />
  <path d="M1728.2,787.514c33.821,104.17,90.561,161.08,195.303,195.1,18.416,5.981,18.415,32.05-.001,38.03-104.771,34.019-161.514,90.928-195.317,195.1-5.985,18.445-32.059,18.447-38.047.003-33.819-104.17-90.552-161.098-195.279-195.105-18.417-5.98-18.418-32.05-.001-38.031,104.757-34.02,161.496-90.929,195.296-195.095,5.985-18.444,32.059-18.447,38.047-.003Z" fill="#fff" />
</svg>